<mxfile host="app.diagrams.net" modified="2024-01-17T02:01:02.692Z" agent="Mozilla/5.0 (Macintosh; Intel Mac OS X 10_15_7) AppleWebKit/537.36 (KHTML, like Gecko) Chrome/120.0.0.0 Safari/537.36" version="22.1.20" etag="d7vDb9hyC-eazO56k5L7" type="github">
  <diagram name="Page-1" id="CYR20Yl3O60PS25mUJ1M">
    <mxGraphModel>
      <root>
        <mxCell id="0" />
        <mxCell id="1" parent="0" />
      </root>
    </mxGraphModel>
  </diagram>
</mxfile>
